<?xml version="1.0" standalone="no"?>
<!DOCTYPE svg PUBLIC "-//W3C//DTD SVG 20010904//EN"
 "http://www.w3.org/TR/2001/REC-SVG-20010904/DTD/svg10.dtd">
<svg version="1.0" xmlns="http://www.w3.org/2000/svg"
 width="512.000000pt" height="512.000000pt" viewBox="0 0 512.000000 512.000000"
 preserveAspectRatio="xMidYMid meet">
<metadata>
Created by potrace 1.14, written by Peter Selinger 2001-2017
</metadata>
<g transform="translate(0.000000,512.000000) scale(0.100000,-0.100000)"
fill="#000000" stroke="none">
<path d="M2400 4804 c-52 -7 -120 -20 -150 -29 -30 -9 -62 -17 -71 -19 -30 -8
-139 -56 -267 -120 -71 -36 -159 -78 -193 -95 -35 -16 -116 -53 -179 -84 -63
-30 -236 -113 -385 -184 -148 -71 -290 -142 -315 -158 -63 -40 -174 -155 -225
-234 -83 -128 -177 -354 -198 -476 -3 -16 -10 -53 -16 -82 -23 -117 -26 -207
-26 -878 0 -686 2 -748 25 -836 26 -102 102 -269 122 -269 5 0 8 -7 8 -15 0
-19 143 -164 200 -202 69 -46 1107 -653 1170 -684 261 -127 663 -167 1006 -99
123 24 353 104 374 130 3 4 19 13 35 22 17 8 71 39 120 68 50 29 125 74 168
99 43 25 93 55 110 65 18 10 53 31 78 45 262 149 573 336 627 376 118 88 223
232 275 376 52 143 52 142 52 914 0 631 -3 778 -20 863 -50 264 -150 500 -276
657 -113 140 -127 148 -614 380 -197 93 -379 181 -565 272 -107 52 -226 108
-265 123 -186 75 -401 101 -605 74z"/>
</g>
</svg>
